# xmcd
#
# Track frame offsets: 
#        150
#        15970
#        25930
#        41552
#        60270
#        72930
#        85632
#        97750
#        109435
#        122477
#        145490
#        159617
#        173557
#        185920
#        203497
#
# Disc length: 2902 seconds
#
# Revision: 3
# Processed by: cddbd v1.5.2PL0 Copyright (c) Steve Scherf et al.
# Submitted via: ExactAudioCopy v0.99pb5
#
DISCID=bb0b540f
DTITLE=Mistrínanka - Sólo Pro Vás
DYEAR=1996
DGENRE=Folklore
TTITLE0=Baborka
TTITLE1=Kvapcík
TTITLE2=Myslivcoco Loucení
TTITLE3=Tesarská
TTITLE4=Trumpetová Láska
TTITLE5=Mexická Serenáda
TTITLE6=Borsická
TTITLE7=Kokosový Orech
TTITLE8=Pro Margot
TTITLE9=Venkovanka
TTITLE10=Po Pulnoci
TTITLE11=Valcík Pro Tubu
TTITLE12=Zpev Skrivana
TTITLE13=Slovácký Tanec C. 5
TTITLE14=Fan Club
EXTD=
EXTT0=
EXTT1=
EXTT2=
EXTT3=
EXTT4=
EXTT5=
EXTT6=
EXTT7=
EXTT8=
EXTT9=
EXTT10=
EXTT11=
EXTT12=
EXTT13=
EXTT14=
PLAYORDER=
